# xmcd
#
# Track frame offsets: 
#        150
#        9592
#        34340
#        54969
#        75356
#        91773
#        110709
#        130364
#        147915
#        166516
#        184817
#        203543
#        219385
#        236625
#        286800
#
# Disc length: 4130 seconds
#
# Revision: 0
# Processed by: cddbd v1.5.2PL0 Copyright (c) Steve Scherf et al.
# Submitted via: ExactAudioCopy v0.95b4
#
DISCID=c110200f
DTITLE=Aventura - Love and Hate
DYEAR=2004
DGENRE=Salsa
TTITLE0=Intro
TTITLE1=La Pelìcula
TTITLE2=Hermanita
TTITLE3=Mi Nina Cambiò
TTITLE4=Pueblo por pueblo
TTITLE5=I´m Sorry
TTITLE6=Deja Vù
TTITLE7=Conciencia
TTITLE8=Llorar
TTITLE9=Papi Dijo
TTITLE10=Me Voy
TTITLE11=Te Invito
TTITLE12=Aventura
TTITLE13=La Guerra 
TTITLE14=???
EXTD=
EXTT0=
EXTT1=
EXTT2=
EXTT3=
EXTT4=
EXTT5=
EXTT6=
EXTT7=
EXTT8=
EXTT9=
EXTT10=
EXTT11=
EXTT12=
EXTT13=
EXTT14=
PLAYORDER=
